<mxfile host="app.diagrams.net" modified="2024-02-29T09:10:43.465Z" agent="Mozilla/5.0 (Windows NT 10.0; Win64; x64) AppleWebKit/537.36 (KHTML, like Gecko) Chrome/120.0.0.0 YaBrowser/24.1.0.0 Safari/537.36" etag="daXtrjELeSjdhqz9kLZW" version="23.1.8" type="google">
  <diagram name="Страница — 1" id="KIpWJhx2FPwX7MweBWqH">
    <mxGraphModel grid="1" page="1" gridSize="10" guides="1" tooltips="1" connect="1" arrows="1" fold="1" pageScale="1" pageWidth="827" pageHeight="1169" math="0" shadow="0">
      <root>
        <mxCell id="0" />
        <mxCell id="1" parent="0" />
        <mxCell id="Q8IMzCf4S45JMiVB3Quy-3" value="Начало" style="rounded=1;whiteSpace=wrap;html=1;arcSize=50;" vertex="1" parent="1">
          <mxGeometry x="290" y="280" width="110" height="30" as="geometry" />
        </mxCell>
        <mxCell id="Q8IMzCf4S45JMiVB3Quy-4" value="Вход в систему" style="shape=parallelogram;perimeter=parallelogramPerimeter;whiteSpace=wrap;html=1;fixedSize=1;size=30;" vertex="1" parent="1">
          <mxGeometry x="275" y="520" width="120" height="60" as="geometry" />
        </mxCell>
        <mxCell id="Q8IMzCf4S45JMiVB3Quy-5" value="Врач?" style="rhombus;whiteSpace=wrap;html=1;" vertex="1" parent="1">
          <mxGeometry x="294" y="620" width="80" height="80" as="geometry" />
        </mxCell>
        <mxCell id="Q8IMzCf4S45JMiVB3Quy-7" value="Авторизация" style="shape=parallelogram;perimeter=parallelogramPerimeter;whiteSpace=wrap;html=1;fixedSize=1;size=30;" vertex="1" parent="1">
          <mxGeometry x="280" y="340" width="120" height="60" as="geometry" />
        </mxCell>
        <mxCell id="Q8IMzCf4S45JMiVB3Quy-32" value="" style="edgeStyle=orthogonalEdgeStyle;rounded=0;orthogonalLoop=1;jettySize=auto;html=1;" edge="1" parent="1" source="Q8IMzCf4S45JMiVB3Quy-8" target="Q8IMzCf4S45JMiVB3Quy-4">
          <mxGeometry relative="1" as="geometry" />
        </mxCell>
        <mxCell id="Q8IMzCf4S45JMiVB3Quy-8" value="Проверка пользователя" style="shape=parallelogram;perimeter=parallelogramPerimeter;whiteSpace=wrap;html=1;fixedSize=1;size=30;" vertex="1" parent="1">
          <mxGeometry x="275" y="430" width="120" height="60" as="geometry" />
        </mxCell>
        <mxCell id="Q8IMzCf4S45JMiVB3Quy-23" style="edgeStyle=orthogonalEdgeStyle;rounded=0;orthogonalLoop=1;jettySize=auto;html=1;entryX=0.5;entryY=0;entryDx=0;entryDy=0;" edge="1" parent="1" source="Q8IMzCf4S45JMiVB3Quy-9" target="Q8IMzCf4S45JMiVB3Quy-11">
          <mxGeometry relative="1" as="geometry" />
        </mxCell>
        <mxCell id="Q8IMzCf4S45JMiVB3Quy-9" value="Выбор функции" style="rounded=0;whiteSpace=wrap;html=1;" vertex="1" parent="1">
          <mxGeometry x="370" y="722" width="96" height="30" as="geometry" />
        </mxCell>
        <mxCell id="Q8IMzCf4S45JMiVB3Quy-18" style="edgeStyle=orthogonalEdgeStyle;rounded=0;orthogonalLoop=1;jettySize=auto;html=1;entryX=0.5;entryY=0;entryDx=0;entryDy=0;" edge="1" parent="1" source="Q8IMzCf4S45JMiVB3Quy-10" target="Q8IMzCf4S45JMiVB3Quy-13">
          <mxGeometry relative="1" as="geometry">
            <Array as="points">
              <mxPoint x="170" y="742" />
            </Array>
          </mxGeometry>
        </mxCell>
        <mxCell id="Q8IMzCf4S45JMiVB3Quy-10" value="Выбор функции" style="rounded=0;whiteSpace=wrap;html=1;" vertex="1" parent="1">
          <mxGeometry x="210" y="722" width="96" height="30" as="geometry" />
        </mxCell>
        <mxCell id="Q8IMzCf4S45JMiVB3Quy-24" style="edgeStyle=orthogonalEdgeStyle;rounded=0;orthogonalLoop=1;jettySize=auto;html=1;entryX=0.5;entryY=0;entryDx=0;entryDy=0;" edge="1" parent="1" source="Q8IMzCf4S45JMiVB3Quy-11" target="Q8IMzCf4S45JMiVB3Quy-12">
          <mxGeometry relative="1" as="geometry" />
        </mxCell>
        <mxCell id="Q8IMzCf4S45JMiVB3Quy-52" style="edgeStyle=orthogonalEdgeStyle;rounded=0;orthogonalLoop=1;jettySize=auto;html=1;" edge="1" parent="1" source="Q8IMzCf4S45JMiVB3Quy-11" target="Q8IMzCf4S45JMiVB3Quy-51">
          <mxGeometry relative="1" as="geometry" />
        </mxCell>
        <mxCell id="Q8IMzCf4S45JMiVB3Quy-11" value="Запсиь к врачу" style="rhombus;whiteSpace=wrap;html=1;" vertex="1" parent="1">
          <mxGeometry x="480" y="762" width="80" height="60" as="geometry" />
        </mxCell>
        <mxCell id="Q8IMzCf4S45JMiVB3Quy-55" style="edgeStyle=orthogonalEdgeStyle;rounded=0;orthogonalLoop=1;jettySize=auto;html=1;entryX=0;entryY=0.5;entryDx=0;entryDy=0;" edge="1" parent="1" source="Q8IMzCf4S45JMiVB3Quy-12" target="Q8IMzCf4S45JMiVB3Quy-54">
          <mxGeometry relative="1" as="geometry" />
        </mxCell>
        <mxCell id="Q8IMzCf4S45JMiVB3Quy-12" value="Сообщение врачу" style="rhombus;whiteSpace=wrap;html=1;" vertex="1" parent="1">
          <mxGeometry x="480" y="842" width="80" height="60" as="geometry" />
        </mxCell>
        <mxCell id="Q8IMzCf4S45JMiVB3Quy-19" style="edgeStyle=orthogonalEdgeStyle;rounded=0;orthogonalLoop=1;jettySize=auto;html=1;entryX=0.5;entryY=0;entryDx=0;entryDy=0;" edge="1" parent="1" source="Q8IMzCf4S45JMiVB3Quy-13" target="Q8IMzCf4S45JMiVB3Quy-14">
          <mxGeometry relative="1" as="geometry" />
        </mxCell>
        <mxCell id="Q8IMzCf4S45JMiVB3Quy-86" style="edgeStyle=orthogonalEdgeStyle;rounded=0;orthogonalLoop=1;jettySize=auto;html=1;entryX=1;entryY=0.5;entryDx=0;entryDy=0;" edge="1" parent="1" source="Q8IMzCf4S45JMiVB3Quy-13" target="Q8IMzCf4S45JMiVB3Quy-81">
          <mxGeometry relative="1" as="geometry" />
        </mxCell>
        <mxCell id="Q8IMzCf4S45JMiVB3Quy-13" value="Сообщение пациенту" style="rhombus;whiteSpace=wrap;html=1;" vertex="1" parent="1">
          <mxGeometry x="130" y="772" width="80" height="60" as="geometry" />
        </mxCell>
        <mxCell id="Q8IMzCf4S45JMiVB3Quy-20" style="edgeStyle=orthogonalEdgeStyle;rounded=0;orthogonalLoop=1;jettySize=auto;html=1;" edge="1" parent="1" source="Q8IMzCf4S45JMiVB3Quy-14" target="Q8IMzCf4S45JMiVB3Quy-15">
          <mxGeometry relative="1" as="geometry" />
        </mxCell>
        <mxCell id="Q8IMzCf4S45JMiVB3Quy-37" style="edgeStyle=orthogonalEdgeStyle;rounded=0;orthogonalLoop=1;jettySize=auto;html=1;entryX=1;entryY=0.5;entryDx=0;entryDy=0;" edge="1" parent="1" source="Q8IMzCf4S45JMiVB3Quy-14" target="Q8IMzCf4S45JMiVB3Quy-36">
          <mxGeometry relative="1" as="geometry" />
        </mxCell>
        <mxCell id="Q8IMzCf4S45JMiVB3Quy-14" value="Анализ ФЛГ снимков" style="rhombus;whiteSpace=wrap;html=1;" vertex="1" parent="1">
          <mxGeometry x="130" y="862" width="80" height="60" as="geometry" />
        </mxCell>
        <mxCell id="Q8IMzCf4S45JMiVB3Quy-21" style="edgeStyle=orthogonalEdgeStyle;rounded=0;orthogonalLoop=1;jettySize=auto;html=1;" edge="1" parent="1" source="Q8IMzCf4S45JMiVB3Quy-15" target="Q8IMzCf4S45JMiVB3Quy-16">
          <mxGeometry relative="1" as="geometry" />
        </mxCell>
        <mxCell id="Q8IMzCf4S45JMiVB3Quy-43" style="edgeStyle=orthogonalEdgeStyle;rounded=0;orthogonalLoop=1;jettySize=auto;html=1;entryX=1;entryY=0.5;entryDx=0;entryDy=0;" edge="1" parent="1" source="Q8IMzCf4S45JMiVB3Quy-15" target="Q8IMzCf4S45JMiVB3Quy-41">
          <mxGeometry relative="1" as="geometry" />
        </mxCell>
        <mxCell id="Q8IMzCf4S45JMiVB3Quy-15" value="Анализ МРТ снимков" style="rhombus;whiteSpace=wrap;html=1;" vertex="1" parent="1">
          <mxGeometry x="130" y="942" width="80" height="60" as="geometry" />
        </mxCell>
        <mxCell id="Q8IMzCf4S45JMiVB3Quy-22" style="edgeStyle=orthogonalEdgeStyle;rounded=0;orthogonalLoop=1;jettySize=auto;html=1;entryX=0.5;entryY=0;entryDx=0;entryDy=0;" edge="1" parent="1" source="Q8IMzCf4S45JMiVB3Quy-16" target="Q8IMzCf4S45JMiVB3Quy-17">
          <mxGeometry relative="1" as="geometry" />
        </mxCell>
        <mxCell id="Q8IMzCf4S45JMiVB3Quy-47" style="edgeStyle=orthogonalEdgeStyle;rounded=0;orthogonalLoop=1;jettySize=auto;html=1;entryX=1;entryY=0.5;entryDx=0;entryDy=0;" edge="1" parent="1" source="Q8IMzCf4S45JMiVB3Quy-16" target="Q8IMzCf4S45JMiVB3Quy-45">
          <mxGeometry relative="1" as="geometry" />
        </mxCell>
        <mxCell id="Q8IMzCf4S45JMiVB3Quy-16" value="Анализ МРТ сердца" style="rhombus;whiteSpace=wrap;html=1;" vertex="1" parent="1">
          <mxGeometry x="130" y="1022" width="80" height="60" as="geometry" />
        </mxCell>
        <mxCell id="Q8IMzCf4S45JMiVB3Quy-67" style="edgeStyle=orthogonalEdgeStyle;rounded=0;orthogonalLoop=1;jettySize=auto;html=1;entryX=0.992;entryY=0.37;entryDx=0;entryDy=0;entryPerimeter=0;" edge="1" parent="1" source="Q8IMzCf4S45JMiVB3Quy-17" target="Q8IMzCf4S45JMiVB3Quy-64">
          <mxGeometry relative="1" as="geometry" />
        </mxCell>
        <mxCell id="Q8IMzCf4S45JMiVB3Quy-17" value="Записи" style="rhombus;whiteSpace=wrap;html=1;" vertex="1" parent="1">
          <mxGeometry x="130" y="1102" width="80" height="60" as="geometry" />
        </mxCell>
        <mxCell id="Q8IMzCf4S45JMiVB3Quy-30" style="edgeStyle=orthogonalEdgeStyle;rounded=0;orthogonalLoop=1;jettySize=auto;html=1;entryX=0.542;entryY=0;entryDx=0;entryDy=0;entryPerimeter=0;" edge="1" parent="1" source="Q8IMzCf4S45JMiVB3Quy-3" target="Q8IMzCf4S45JMiVB3Quy-7">
          <mxGeometry relative="1" as="geometry" />
        </mxCell>
        <mxCell id="Q8IMzCf4S45JMiVB3Quy-31" style="edgeStyle=orthogonalEdgeStyle;rounded=0;orthogonalLoop=1;jettySize=auto;html=1;entryX=0.542;entryY=0;entryDx=0;entryDy=0;entryPerimeter=0;" edge="1" parent="1" source="Q8IMzCf4S45JMiVB3Quy-7" target="Q8IMzCf4S45JMiVB3Quy-8">
          <mxGeometry relative="1" as="geometry" />
        </mxCell>
        <mxCell id="Q8IMzCf4S45JMiVB3Quy-33" style="edgeStyle=orthogonalEdgeStyle;rounded=0;orthogonalLoop=1;jettySize=auto;html=1;entryX=0.507;entryY=-0.02;entryDx=0;entryDy=0;entryPerimeter=0;" edge="1" parent="1" source="Q8IMzCf4S45JMiVB3Quy-4" target="Q8IMzCf4S45JMiVB3Quy-5">
          <mxGeometry relative="1" as="geometry" />
        </mxCell>
        <mxCell id="Q8IMzCf4S45JMiVB3Quy-34" style="edgeStyle=orthogonalEdgeStyle;rounded=0;orthogonalLoop=1;jettySize=auto;html=1;entryX=0.457;entryY=-0.076;entryDx=0;entryDy=0;entryPerimeter=0;" edge="1" parent="1" source="Q8IMzCf4S45JMiVB3Quy-5" target="Q8IMzCf4S45JMiVB3Quy-9">
          <mxGeometry relative="1" as="geometry">
            <Array as="points">
              <mxPoint x="414" y="660" />
            </Array>
          </mxGeometry>
        </mxCell>
        <mxCell id="Q8IMzCf4S45JMiVB3Quy-39" style="edgeStyle=orthogonalEdgeStyle;rounded=0;orthogonalLoop=1;jettySize=auto;html=1;entryX=1;entryY=0.5;entryDx=0;entryDy=0;" edge="1" parent="1" source="Q8IMzCf4S45JMiVB3Quy-36" target="Q8IMzCf4S45JMiVB3Quy-38">
          <mxGeometry relative="1" as="geometry" />
        </mxCell>
        <mxCell id="Q8IMzCf4S45JMiVB3Quy-36" value="Обработка с помощью нейронной сети" style="shape=process;whiteSpace=wrap;html=1;backgroundOutline=1;" vertex="1" parent="1">
          <mxGeometry x="-30" y="860" width="110" height="65" as="geometry" />
        </mxCell>
        <mxCell id="Q8IMzCf4S45JMiVB3Quy-38" value="Результаты анализа" style="shape=document;whiteSpace=wrap;html=1;boundedLbl=1;" vertex="1" parent="1">
          <mxGeometry x="-180" y="867.75" width="100" height="49.5" as="geometry" />
        </mxCell>
        <mxCell id="Q8IMzCf4S45JMiVB3Quy-40" style="edgeStyle=orthogonalEdgeStyle;rounded=0;orthogonalLoop=1;jettySize=auto;html=1;entryX=1;entryY=0.5;entryDx=0;entryDy=0;" edge="1" parent="1" source="Q8IMzCf4S45JMiVB3Quy-41" target="Q8IMzCf4S45JMiVB3Quy-42">
          <mxGeometry relative="1" as="geometry" />
        </mxCell>
        <mxCell id="Q8IMzCf4S45JMiVB3Quy-41" value="Обработка с помощью нейронной сети" style="shape=process;whiteSpace=wrap;html=1;backgroundOutline=1;" vertex="1" parent="1">
          <mxGeometry x="-30" y="940" width="110" height="65" as="geometry" />
        </mxCell>
        <mxCell id="Q8IMzCf4S45JMiVB3Quy-42" value="Результаты анализа" style="shape=document;whiteSpace=wrap;html=1;boundedLbl=1;" vertex="1" parent="1">
          <mxGeometry x="-180" y="947.75" width="100" height="49.5" as="geometry" />
        </mxCell>
        <mxCell id="Q8IMzCf4S45JMiVB3Quy-44" style="edgeStyle=orthogonalEdgeStyle;rounded=0;orthogonalLoop=1;jettySize=auto;html=1;entryX=1;entryY=0.5;entryDx=0;entryDy=0;" edge="1" parent="1" source="Q8IMzCf4S45JMiVB3Quy-45" target="Q8IMzCf4S45JMiVB3Quy-46">
          <mxGeometry relative="1" as="geometry" />
        </mxCell>
        <mxCell id="Q8IMzCf4S45JMiVB3Quy-45" value="Обработка с помощью методов машинного обучения" style="shape=process;whiteSpace=wrap;html=1;backgroundOutline=1;" vertex="1" parent="1">
          <mxGeometry x="-30" y="1016.5" width="110" height="72.5" as="geometry" />
        </mxCell>
        <mxCell id="Q8IMzCf4S45JMiVB3Quy-46" value="Результаты анализа" style="shape=document;whiteSpace=wrap;html=1;boundedLbl=1;" vertex="1" parent="1">
          <mxGeometry x="-180" y="1027.25" width="100" height="49.5" as="geometry" />
        </mxCell>
        <mxCell id="Q8IMzCf4S45JMiVB3Quy-50" value="Данные о записи" style="shape=manualInput;whiteSpace=wrap;html=1;direction=east;size=27;" vertex="1" parent="1">
          <mxGeometry x="740" y="742" width="91" height="80" as="geometry" />
        </mxCell>
        <mxCell id="Q8IMzCf4S45JMiVB3Quy-51" value="Выбор даты,&lt;br&gt;&amp;nbsp;врача и кабинета" style="shape=parallelogram;perimeter=parallelogramPerimeter;whiteSpace=wrap;html=1;fixedSize=1;size=-10;" vertex="1" parent="1">
          <mxGeometry x="580" y="762" width="120" height="60" as="geometry" />
        </mxCell>
        <mxCell id="Q8IMzCf4S45JMiVB3Quy-53" style="edgeStyle=orthogonalEdgeStyle;rounded=0;orthogonalLoop=1;jettySize=auto;html=1;entryX=-0.031;entryY=0.63;entryDx=0;entryDy=0;entryPerimeter=0;" edge="1" parent="1" source="Q8IMzCf4S45JMiVB3Quy-51" target="Q8IMzCf4S45JMiVB3Quy-50">
          <mxGeometry relative="1" as="geometry" />
        </mxCell>
        <mxCell id="Q8IMzCf4S45JMiVB3Quy-57" style="edgeStyle=orthogonalEdgeStyle;rounded=0;orthogonalLoop=1;jettySize=auto;html=1;entryX=0;entryY=0.5;entryDx=0;entryDy=0;" edge="1" parent="1" source="Q8IMzCf4S45JMiVB3Quy-54" target="Q8IMzCf4S45JMiVB3Quy-56">
          <mxGeometry relative="1" as="geometry" />
        </mxCell>
        <mxCell id="Q8IMzCf4S45JMiVB3Quy-54" value="Выбор &lt;br&gt;получателя,&lt;br&gt;&amp;nbsp;ввод сообщения" style="shape=parallelogram;perimeter=parallelogramPerimeter;whiteSpace=wrap;html=1;fixedSize=1;size=-7;" vertex="1" parent="1">
          <mxGeometry x="577" y="842" width="120" height="60" as="geometry" />
        </mxCell>
        <mxCell id="Q8IMzCf4S45JMiVB3Quy-56" value="текст сообщения" style="shape=manualInput;whiteSpace=wrap;html=1;direction=east;size=27;" vertex="1" parent="1">
          <mxGeometry x="740" y="832" width="91" height="80" as="geometry" />
        </mxCell>
        <mxCell id="Q8IMzCf4S45JMiVB3Quy-58" value="Записи" style="shape=cylinder3;whiteSpace=wrap;html=1;boundedLbl=1;backgroundOutline=1;size=6.470588235294031;" vertex="1" parent="1">
          <mxGeometry x="340" y="984.5" width="70" height="30" as="geometry" />
        </mxCell>
        <mxCell id="Q8IMzCf4S45JMiVB3Quy-59" value="Сообщения" style="shape=cylinder3;whiteSpace=wrap;html=1;boundedLbl=1;backgroundOutline=1;size=6.470588235294031;" vertex="1" parent="1">
          <mxGeometry x="340" y="923" width="70" height="30" as="geometry" />
        </mxCell>
        <mxCell id="Q8IMzCf4S45JMiVB3Quy-60" style="edgeStyle=orthogonalEdgeStyle;rounded=0;orthogonalLoop=1;jettySize=auto;html=1;entryX=1;entryY=0.5;entryDx=0;entryDy=0;entryPerimeter=0;" edge="1" parent="1" source="Q8IMzCf4S45JMiVB3Quy-50" target="Q8IMzCf4S45JMiVB3Quy-58">
          <mxGeometry relative="1" as="geometry">
            <Array as="points">
              <mxPoint x="910" y="780" />
              <mxPoint x="910" y="999" />
            </Array>
          </mxGeometry>
        </mxCell>
        <mxCell id="Q8IMzCf4S45JMiVB3Quy-62" style="edgeStyle=orthogonalEdgeStyle;rounded=0;orthogonalLoop=1;jettySize=auto;html=1;entryX=0.469;entryY=0.008;entryDx=0;entryDy=0;entryPerimeter=0;" edge="1" parent="1" source="Q8IMzCf4S45JMiVB3Quy-5" target="Q8IMzCf4S45JMiVB3Quy-10">
          <mxGeometry relative="1" as="geometry">
            <Array as="points">
              <mxPoint x="255" y="660" />
            </Array>
          </mxGeometry>
        </mxCell>
        <mxCell id="Q8IMzCf4S45JMiVB3Quy-63" style="edgeStyle=orthogonalEdgeStyle;rounded=0;orthogonalLoop=1;jettySize=auto;html=1;entryX=1;entryY=0.5;entryDx=0;entryDy=0;entryPerimeter=0;" edge="1" parent="1" source="Q8IMzCf4S45JMiVB3Quy-56" target="Q8IMzCf4S45JMiVB3Quy-59">
          <mxGeometry relative="1" as="geometry">
            <Array as="points">
              <mxPoint x="840" y="872" />
              <mxPoint x="840" y="938" />
            </Array>
          </mxGeometry>
        </mxCell>
        <mxCell id="Q8IMzCf4S45JMiVB3Quy-64" value="Уведомление о записи" style="rounded=0;whiteSpace=wrap;html=1;" vertex="1" parent="1">
          <mxGeometry x="-40" y="1109" width="120" height="60" as="geometry" />
        </mxCell>
        <mxCell id="Q8IMzCf4S45JMiVB3Quy-66" value="Данные о записи" style="shape=offPageConnector;whiteSpace=wrap;html=1;direction=south;size=0.18181818181818182;" vertex="1" parent="1">
          <mxGeometry x="-200" y="1095" width="110" height="80" as="geometry" />
        </mxCell>
        <mxCell id="Q8IMzCf4S45JMiVB3Quy-68" style="edgeStyle=orthogonalEdgeStyle;rounded=0;orthogonalLoop=1;jettySize=auto;html=1;entryX=0.563;entryY=0.005;entryDx=0;entryDy=0;entryPerimeter=0;" edge="1" parent="1" source="Q8IMzCf4S45JMiVB3Quy-64" target="Q8IMzCf4S45JMiVB3Quy-66">
          <mxGeometry relative="1" as="geometry" />
        </mxCell>
        <mxCell id="Q8IMzCf4S45JMiVB3Quy-69" value="Ложь" style="text;html=1;align=center;verticalAlign=middle;whiteSpace=wrap;rounded=0;" vertex="1" parent="1">
          <mxGeometry x="360" y="630" width="60" height="30" as="geometry" />
        </mxCell>
        <mxCell id="Q8IMzCf4S45JMiVB3Quy-70" value="Истина" style="text;html=1;align=center;verticalAlign=middle;whiteSpace=wrap;rounded=0;" vertex="1" parent="1">
          <mxGeometry x="231" y="623" width="60" height="30" as="geometry" />
        </mxCell>
        <mxCell id="Q8IMzCf4S45JMiVB3Quy-71" value="Истина" style="text;html=1;align=center;verticalAlign=middle;whiteSpace=wrap;rounded=0;" vertex="1" parent="1">
          <mxGeometry x="530" y="752" width="60" height="30" as="geometry" />
        </mxCell>
        <mxCell id="Q8IMzCf4S45JMiVB3Quy-72" value="Истина" style="text;html=1;align=center;verticalAlign=middle;whiteSpace=wrap;rounded=0;" vertex="1" parent="1">
          <mxGeometry x="530" y="837.75" width="60" height="30" as="geometry" />
        </mxCell>
        <mxCell id="Q8IMzCf4S45JMiVB3Quy-74" value="Истина" style="text;html=1;align=center;verticalAlign=middle;whiteSpace=wrap;rounded=0;" vertex="1" parent="1">
          <mxGeometry x="80" y="862" width="60" height="30" as="geometry" />
        </mxCell>
        <mxCell id="Q8IMzCf4S45JMiVB3Quy-75" value="Истина" style="text;html=1;align=center;verticalAlign=middle;whiteSpace=wrap;rounded=0;" vertex="1" parent="1">
          <mxGeometry x="80" y="947.75" width="60" height="30" as="geometry" />
        </mxCell>
        <mxCell id="Q8IMzCf4S45JMiVB3Quy-76" value="Истина" style="text;html=1;align=center;verticalAlign=middle;whiteSpace=wrap;rounded=0;" vertex="1" parent="1">
          <mxGeometry x="80" y="1022" width="60" height="30" as="geometry" />
        </mxCell>
        <mxCell id="Q8IMzCf4S45JMiVB3Quy-77" value="Истина" style="text;html=1;align=center;verticalAlign=middle;whiteSpace=wrap;rounded=0;" vertex="1" parent="1">
          <mxGeometry x="80" y="1102" width="60" height="30" as="geometry" />
        </mxCell>
        <mxCell id="Q8IMzCf4S45JMiVB3Quy-78" value="Ложь" style="text;html=1;align=center;verticalAlign=middle;whiteSpace=wrap;rounded=0;" vertex="1" parent="1">
          <mxGeometry x="460" y="812" width="60" height="30" as="geometry" />
        </mxCell>
        <mxCell id="Q8IMzCf4S45JMiVB3Quy-79" value="Ложь" style="text;html=1;align=center;verticalAlign=middle;whiteSpace=wrap;rounded=0;" vertex="1" parent="1">
          <mxGeometry x="160" y="830" width="60" height="30" as="geometry" />
        </mxCell>
        <mxCell id="Q8IMzCf4S45JMiVB3Quy-87" value="" style="edgeStyle=orthogonalEdgeStyle;rounded=0;orthogonalLoop=1;jettySize=auto;html=1;" edge="1" parent="1" source="Q8IMzCf4S45JMiVB3Quy-81" target="Q8IMzCf4S45JMiVB3Quy-82">
          <mxGeometry relative="1" as="geometry" />
        </mxCell>
        <mxCell id="Q8IMzCf4S45JMiVB3Quy-81" value="Выбор &lt;br&gt;получателя,&lt;br&gt;&amp;nbsp;ввод сообщения" style="shape=parallelogram;perimeter=parallelogramPerimeter;whiteSpace=wrap;html=1;fixedSize=1;size=-7;" vertex="1" parent="1">
          <mxGeometry x="-40" y="772" width="120" height="60" as="geometry" />
        </mxCell>
        <mxCell id="Q8IMzCf4S45JMiVB3Quy-88" style="edgeStyle=orthogonalEdgeStyle;rounded=0;orthogonalLoop=1;jettySize=auto;html=1;" edge="1" parent="1" source="Q8IMzCf4S45JMiVB3Quy-82" target="Q8IMzCf4S45JMiVB3Quy-59">
          <mxGeometry relative="1" as="geometry">
            <Array as="points">
              <mxPoint x="-200" y="802" />
              <mxPoint x="-200" y="1200" />
              <mxPoint x="310" y="1200" />
              <mxPoint x="310" y="938" />
            </Array>
          </mxGeometry>
        </mxCell>
        <mxCell id="Q8IMzCf4S45JMiVB3Quy-82" value="текст сообщения" style="shape=manualInput;whiteSpace=wrap;html=1;direction=east;size=27;" vertex="1" parent="1">
          <mxGeometry x="-160" y="762" width="91" height="80" as="geometry" />
        </mxCell>
        <mxCell id="Q8IMzCf4S45JMiVB3Quy-83" value="Ложь" style="text;html=1;align=center;verticalAlign=middle;whiteSpace=wrap;rounded=0;" vertex="1" parent="1">
          <mxGeometry x="160" y="917.75" width="60" height="30" as="geometry" />
        </mxCell>
        <mxCell id="Q8IMzCf4S45JMiVB3Quy-84" value="Ложь" style="text;html=1;align=center;verticalAlign=middle;whiteSpace=wrap;rounded=0;" vertex="1" parent="1">
          <mxGeometry x="160" y="997.25" width="60" height="30" as="geometry" />
        </mxCell>
        <mxCell id="Q8IMzCf4S45JMiVB3Quy-85" value="Ложь" style="text;html=1;align=center;verticalAlign=middle;whiteSpace=wrap;rounded=0;" vertex="1" parent="1">
          <mxGeometry x="160" y="1076.75" width="60" height="30" as="geometry" />
        </mxCell>
      </root>
    </mxGraphModel>
  </diagram>
</mxfile>
